<mxfile host="app.diagrams.net" modified="2023-04-23T07:51:06.607Z" agent="Mozilla/5.0 (Windows NT 10.0; Win64; x64; rv:109.0) Gecko/20100101 Firefox/112.0" etag="_dq11K42pN9NzvewDWZb" version="21.2.1" type="github">
  <diagram name="Página-1" id="gTr-eT0ctpq64FqH8VdC">
    <mxGraphModel dx="1114" dy="492" grid="1" gridSize="10" guides="1" tooltips="1" connect="1" arrows="1" fold="1" page="1" pageScale="1" pageWidth="850" pageHeight="1100" math="0" shadow="0">
      <root>
        <mxCell id="0" />
        <mxCell id="1" parent="0" />
        <mxCell id="7hTBa2oThh7JP0PSqJas-1" value="" style="whiteSpace=wrap;html=1;aspect=fixed;fillColor=#fff2cc;strokeColor=#d6b656;" vertex="1" parent="1">
          <mxGeometry x="140" y="30" width="430" height="430" as="geometry" />
        </mxCell>
        <mxCell id="7hTBa2oThh7JP0PSqJas-2" value="SISTEMA" style="text;html=1;strokeColor=none;fillColor=none;align=center;verticalAlign=middle;whiteSpace=wrap;rounded=0;" vertex="1" parent="1">
          <mxGeometry x="275" y="50" width="120" height="30" as="geometry" />
        </mxCell>
        <mxCell id="7hTBa2oThh7JP0PSqJas-38" style="edgeStyle=orthogonalEdgeStyle;rounded=0;orthogonalLoop=1;jettySize=auto;html=1;entryX=0.975;entryY=0.35;entryDx=0;entryDy=0;entryPerimeter=0;" edge="1" parent="1" source="7hTBa2oThh7JP0PSqJas-3" target="7hTBa2oThh7JP0PSqJas-29">
          <mxGeometry relative="1" as="geometry" />
        </mxCell>
        <mxCell id="7hTBa2oThh7JP0PSqJas-3" value="ADMINISTRADOR" style="shape=umlActor;verticalLabelPosition=bottom;verticalAlign=top;html=1;outlineConnect=0;fillColor=#f8cecc;strokeColor=#b85450;" vertex="1" parent="1">
          <mxGeometry x="620" y="90" width="30" height="60" as="geometry" />
        </mxCell>
        <mxCell id="7hTBa2oThh7JP0PSqJas-4" value="Inicio de sesión con google" style="ellipse;whiteSpace=wrap;html=1;" vertex="1" parent="1">
          <mxGeometry x="250" y="260" width="120" height="40" as="geometry" />
        </mxCell>
        <mxCell id="7hTBa2oThh7JP0PSqJas-5" value="Verificación de estado de usuario." style="ellipse;whiteSpace=wrap;html=1;" vertex="1" parent="1">
          <mxGeometry x="370" y="350" width="135" height="40" as="geometry" />
        </mxCell>
        <mxCell id="7hTBa2oThh7JP0PSqJas-6" value="Verificación de correo" style="ellipse;whiteSpace=wrap;html=1;" vertex="1" parent="1">
          <mxGeometry x="230" y="370" width="120" height="40" as="geometry" />
        </mxCell>
        <mxCell id="7hTBa2oThh7JP0PSqJas-7" value="" style="endArrow=classic;html=1;rounded=0;entryX=0.5;entryY=0;entryDx=0;entryDy=0;exitX=0.5;exitY=1;exitDx=0;exitDy=0;" edge="1" parent="1" source="7hTBa2oThh7JP0PSqJas-4" target="7hTBa2oThh7JP0PSqJas-6">
          <mxGeometry relative="1" as="geometry">
            <mxPoint x="270" y="250" as="sourcePoint" />
            <mxPoint x="370" y="250" as="targetPoint" />
          </mxGeometry>
        </mxCell>
        <mxCell id="7hTBa2oThh7JP0PSqJas-8" value="Include" style="edgeLabel;resizable=0;html=1;align=center;verticalAlign=middle;" connectable="0" vertex="1" parent="7hTBa2oThh7JP0PSqJas-7">
          <mxGeometry relative="1" as="geometry" />
        </mxCell>
        <mxCell id="7hTBa2oThh7JP0PSqJas-9" value="" style="endArrow=classic;html=1;rounded=0;exitX=0.65;exitY=0.988;exitDx=0;exitDy=0;exitPerimeter=0;" edge="1" parent="1" source="7hTBa2oThh7JP0PSqJas-4" target="7hTBa2oThh7JP0PSqJas-5">
          <mxGeometry relative="1" as="geometry">
            <mxPoint x="300" y="210" as="sourcePoint" />
            <mxPoint x="280" y="320" as="targetPoint" />
          </mxGeometry>
        </mxCell>
        <mxCell id="7hTBa2oThh7JP0PSqJas-10" value="Include" style="edgeLabel;resizable=0;html=1;align=center;verticalAlign=middle;" connectable="0" vertex="1" parent="7hTBa2oThh7JP0PSqJas-9">
          <mxGeometry relative="1" as="geometry" />
        </mxCell>
        <mxCell id="7hTBa2oThh7JP0PSqJas-33" style="edgeStyle=orthogonalEdgeStyle;rounded=0;orthogonalLoop=1;jettySize=auto;html=1;entryX=0;entryY=0.5;entryDx=0;entryDy=0;" edge="1" parent="1" target="7hTBa2oThh7JP0PSqJas-4">
          <mxGeometry relative="1" as="geometry">
            <mxPoint x="90" y="360" as="sourcePoint" />
            <Array as="points">
              <mxPoint x="160" y="360" />
              <mxPoint x="160" y="280" />
            </Array>
          </mxGeometry>
        </mxCell>
        <mxCell id="7hTBa2oThh7JP0PSqJas-24" value="CLIENTE" style="shape=umlActor;verticalLabelPosition=bottom;verticalAlign=top;html=1;outlineConnect=0;fillColor=#f8cecc;strokeColor=#b85450;" vertex="1" parent="1">
          <mxGeometry x="60" y="330" width="30" height="60" as="geometry" />
        </mxCell>
        <mxCell id="7hTBa2oThh7JP0PSqJas-35" style="edgeStyle=orthogonalEdgeStyle;rounded=0;orthogonalLoop=1;jettySize=auto;html=1;entryX=0;entryY=0.5;entryDx=0;entryDy=0;" edge="1" parent="1" source="7hTBa2oThh7JP0PSqJas-25" target="7hTBa2oThh7JP0PSqJas-29">
          <mxGeometry relative="1" as="geometry" />
        </mxCell>
        <mxCell id="7hTBa2oThh7JP0PSqJas-25" value="&lt;div&gt;ASISTENTE DE&lt;/div&gt;&lt;div&gt;&amp;nbsp;EVENTOS&lt;/div&gt;" style="shape=umlActor;verticalLabelPosition=bottom;verticalAlign=top;html=1;outlineConnect=0;fillColor=#f8cecc;strokeColor=#b85450;" vertex="1" parent="1">
          <mxGeometry x="60" y="30" width="30" height="60" as="geometry" />
        </mxCell>
        <mxCell id="7hTBa2oThh7JP0PSqJas-36" style="edgeStyle=orthogonalEdgeStyle;rounded=0;orthogonalLoop=1;jettySize=auto;html=1;entryX=0.567;entryY=1.1;entryDx=0;entryDy=0;entryPerimeter=0;" edge="1" parent="1" source="7hTBa2oThh7JP0PSqJas-27" target="7hTBa2oThh7JP0PSqJas-29">
          <mxGeometry relative="1" as="geometry">
            <mxPoint x="340" y="140" as="targetPoint" />
            <Array as="points">
              <mxPoint x="75" y="180" />
              <mxPoint x="340" y="180" />
              <mxPoint x="340" y="164" />
            </Array>
          </mxGeometry>
        </mxCell>
        <mxCell id="7hTBa2oThh7JP0PSqJas-27" value="&lt;div&gt;ANALISTA&lt;/div&gt;&lt;div&gt;EMPRESARIAL&lt;br&gt;&lt;/div&gt;" style="shape=umlActor;verticalLabelPosition=bottom;verticalAlign=top;html=1;outlineConnect=0;fillColor=#f8cecc;strokeColor=#b85450;" vertex="1" parent="1">
          <mxGeometry x="60" y="190" width="30" height="60" as="geometry" />
        </mxCell>
        <mxCell id="7hTBa2oThh7JP0PSqJas-37" style="edgeStyle=orthogonalEdgeStyle;rounded=0;orthogonalLoop=1;jettySize=auto;html=1;" edge="1" parent="1" source="7hTBa2oThh7JP0PSqJas-28" target="7hTBa2oThh7JP0PSqJas-29">
          <mxGeometry relative="1" as="geometry">
            <Array as="points">
              <mxPoint x="635" y="190" />
              <mxPoint x="410" y="190" />
            </Array>
          </mxGeometry>
        </mxCell>
        <mxCell id="7hTBa2oThh7JP0PSqJas-28" value="&lt;div&gt;ADMINISTRADOR DE &lt;br&gt;&lt;/div&gt;&lt;div&gt;EVENTOS.&lt;br&gt;&lt;/div&gt;" style="shape=umlActor;verticalLabelPosition=bottom;verticalAlign=top;html=1;outlineConnect=0;fillColor=#f8cecc;strokeColor=#b85450;" vertex="1" parent="1">
          <mxGeometry x="620" y="260" width="30" height="60" as="geometry" />
        </mxCell>
        <mxCell id="7hTBa2oThh7JP0PSqJas-29" value="Inicio de sesión sistema." style="ellipse;whiteSpace=wrap;html=1;" vertex="1" parent="1">
          <mxGeometry x="350" y="120" width="120" height="40" as="geometry" />
        </mxCell>
        <mxCell id="7hTBa2oThh7JP0PSqJas-30" value="Verificación de usuario y contraseña." style="ellipse;whiteSpace=wrap;html=1;" vertex="1" parent="1">
          <mxGeometry x="300" y="200" width="140" height="40" as="geometry" />
        </mxCell>
      </root>
    </mxGraphModel>
  </diagram>
</mxfile>
